HIERARCHY
ROOT Hips
{
    OFFSET   0.000000   0.000000   0.000000
    CHANNELS 6 Xposition Yposition Zposition Zrotation Xrotation Yrotation
    JOINT Chest
    {
        OFFSET   0.000000   8.007240   0.000000
        CHANNELS 3 Zrotation Xrotation Yrotation
        JOINT Chest2
        {
            OFFSET   0.000000  22.077100   0.000000
            CHANNELS 3 Zrotation Xrotation Yrotation
            JOINT Neck
            {
                OFFSET   0.000000  23.254800   0.000000
                CHANNELS 3 Zrotation Xrotation Yrotation
                JOINT Head
                {
                    OFFSET   0.000000  14.370000   1.956600
                    CHANNELS 3 Zrotation Xrotation Yrotation
                    End Site
                    {
                        OFFSET   0.000000  19.566000   0.000000
                    }
                }
            }
            JOINT LeftCollar
            {
                OFFSET   3.911900  19.017000  -0.467064
                CHANNELS 3 Zrotation Xrotation Yrotation
                JOINT LeftShoulder
                {
                    OFFSET  10.383700   0.000000   0.000000
                    CHANNELS 3 Zrotation Xrotation Yrotation
                    JOINT LeftElbow
                    {
                        OFFSET  26.662100   0.001476   0.000517
                        CHANNELS 3 Zrotation Xrotation Yrotation
                        JOINT LeftWrist
                        {
                            OFFSET  28.869000  -0.000025  -0.000106
                            CHANNELS 3 Zrotation Xrotation Yrotation
                            JOINT LeftFinger0
                            {
                                OFFSET   2.044660  -2.323460   3.252850
                                CHANNELS 3 Zrotation Xrotation Yrotation
                                JOINT LeftFinger01
                                {
                                    OFFSET   3.088130   0.000000   0.000000
                                    CHANNELS 3 Zrotation Xrotation Yrotation
                                    JOINT LeftFinger02
                                    {
                                        OFFSET   2.639460   0.000000   0.000000
                                        CHANNELS 3 Zrotation Xrotation Yrotation
                                        End Site
                                        {
                                            OFFSET   2.582190   0.000000   0.000000
                                        }
                                    }
                                }
                            }
                            JOINT LeftFinger1
                            {
                                OFFSET   8.364480   0.000000   3.252850
                                CHANNELS 3 Zrotation Xrotation Yrotation
                                JOINT LeftFinger11
                                {
                                    OFFSET   4.646930   0.000000   0.000000
                                    CHANNELS 3 Zrotation Xrotation Yrotation
                                    JOINT LeftFinger12
                                    {
                                        OFFSET   2.323460   0.000000   0.000000
                                        CHANNELS 3 Zrotation Xrotation Yrotation
                                        End Site
                                        {
                                            OFFSET   2.273050   0.000000   0.000000
                                        }
                                    }
                                }
                            }
                            JOINT LeftFinger2
                            {
                                OFFSET   8.364490   0.000015   1.078090
                                CHANNELS 3 Zrotation Xrotation Yrotation
                                JOINT LeftFinger21
                                {
                                    OFFSET   5.111620   0.000000   0.000000
                                    CHANNELS 3 Zrotation Xrotation Yrotation
                                    JOINT LeftFinger22
                                    {
                                        OFFSET   2.788160   0.000016   0.000000
                                        CHANNELS 3 Zrotation Xrotation Yrotation
                                        End Site
                                        {
                                            OFFSET   2.727660   0.000000   0.000000
                                        }
                                    }
                                }
                            }
                            JOINT LeftFinger3
                            {
                                OFFSET   7.899780   0.000017  -1.078090
                                CHANNELS 3 Zrotation Xrotation Yrotation
                                JOINT LeftFinger31
                                {
                                    OFFSET   4.646930   0.000000   0.000000
                                    CHANNELS 3 Zrotation Xrotation Yrotation
                                    JOINT LeftFinger32
                                    {
                                        OFFSET   2.323470   0.000000   0.000000
                                        CHANNELS 3 Zrotation Xrotation Yrotation
                                        End Site
                                        {
                                            OFFSET   2.273050   0.000000   0.000000
                                        }
                                    }
                                }
                            }
                            JOINT LeftFinger4
                            {
                                OFFSET   7.435090   0.000000  -3.252850
                                CHANNELS 3 Zrotation Xrotation Yrotation
                                JOINT LeftFinger41
                                {
                                    OFFSET   3.717550   0.000000   0.000000
                                    CHANNELS 3 Zrotation Xrotation Yrotation
                                    JOINT LeftFinger42
                                    {
                                        OFFSET   1.858770   0.000000   0.000000
                                        CHANNELS 3 Zrotation Xrotation Yrotation
                                        End Site
                                        {
                                            OFFSET   1.818440   0.000000   0.000000
                                        }
                                    }
                                }
                            }
                        }
                    }
                }
            }
            JOINT RightCollar
            {
                OFFSET  -3.911900  19.017000  -0.467063
                CHANNELS 3 Zrotation Xrotation Yrotation
                JOINT RightShoulder
                {
                    OFFSET -10.383700   0.000019   0.000000
                    CHANNELS 3 Zrotation Xrotation Yrotation
                    JOINT RightElbow
                    {
                        OFFSET -26.662100   0.001175   0.000102
                        CHANNELS 3 Zrotation Xrotation Yrotation
                        JOINT RightWrist
                        {
                            OFFSET -28.869000   0.000016  -0.000079
                            CHANNELS 3 Zrotation Xrotation Yrotation
                            JOINT RightFinger0
                            {
                                OFFSET  -2.044660  -2.323490   3.252850
                                CHANNELS 3 Zrotation Xrotation Yrotation
                                JOINT RightFinger01
                                {
                                    OFFSET  -3.088140   0.000000   0.000000
                                    CHANNELS 3 Zrotation Xrotation Yrotation
                                    JOINT RightFinger02
                                    {
                                        OFFSET  -2.639460   0.000000   0.000000
                                        CHANNELS 3 Zrotation Xrotation Yrotation
                                        End Site
                                        {
                                            OFFSET  -2.582190   0.000000   0.000000
                                        }
                                    }
                                }
                            }
                            JOINT RightFinger1
                            {
                                OFFSET  -8.364480   0.000000   3.252850
                                CHANNELS 3 Zrotation Xrotation Yrotation
                                JOINT RightFinger11
                                {
                                    OFFSET  -4.646930   0.000000   0.000000
                                    CHANNELS 3 Zrotation Xrotation Yrotation
                                    JOINT RightFinger12
                                    {
                                        OFFSET  -2.323470   0.000000   0.000000
                                        CHANNELS 3 Zrotation Xrotation Yrotation
                                        End Site
                                        {
                                            OFFSET  -2.273050   0.000000   0.000000
                                        }
                                    }
                                }
                            }
                            JOINT RightFinger2
                            {
                                OFFSET  -8.364480   0.000000   1.078090
                                CHANNELS 3 Zrotation Xrotation Yrotation
                                JOINT RightFinger21
                                {
                                    OFFSET  -5.111620   0.000000   0.000000
                                    CHANNELS 3 Zrotation Xrotation Yrotation
                                    JOINT RightFinger22
                                    {
                                        OFFSET  -2.788160   0.000000   0.000000
                                        CHANNELS 3 Zrotation Xrotation Yrotation
                                        End Site
                                        {
                                            OFFSET  -2.727660   0.000000   0.000000
                                        }
                                    }
                                }
                            }
                            JOINT RightFinger3
                            {
                                OFFSET  -7.899780   0.000000  -1.078090
                                CHANNELS 3 Zrotation Xrotation Yrotation
                                JOINT RightFinger31
                                {
                                    OFFSET  -4.646930   0.000000   0.000000
                                    CHANNELS 3 Zrotation Xrotation Yrotation
                                    JOINT RightFinger32
                                    {
                                        OFFSET  -2.323470   0.000000   0.000000
                                        CHANNELS 3 Zrotation Xrotation Yrotation
                                        End Site
                                        {
                                            OFFSET  -2.273050   0.000000   0.000000
                                        }
                                    }
                                }
                            }
                            JOINT RightFinger4
                            {
                                OFFSET  -7.435090   0.000000  -3.252850
                                CHANNELS 3 Zrotation Xrotation Yrotation
                                JOINT RightFinger41
                                {
                                    OFFSET  -3.717550   0.000000   0.000000
                                    CHANNELS 3 Zrotation Xrotation Yrotation
                                    JOINT RightFinger42
                                    {
                                        OFFSET  -1.858770   0.000000   0.000000
                                        CHANNELS 3 Zrotation Xrotation Yrotation
                                        End Site
                                        {
                                            OFFSET  -1.818440   0.000000   0.000000
                                        }
                                    }
                                }
                            }
                        }
                    }
                }
            }
        }
    }
    JOINT LeftHip
    {
        OFFSET   9.783040   0.000000   0.000000
        CHANNELS 3 Zrotation Xrotation Yrotation
        JOINT LeftKnee
        {
            OFFSET   0.000032 -41.789100  -0.002222
            CHANNELS 3 Zrotation Xrotation Yrotation
            JOINT LeftAnkle
            {
                OFFSET   0.000087 -41.133200  -0.000135
                CHANNELS 3 Zrotation Xrotation Yrotation
                JOINT LeftToe
                {
                    OFFSET   0.000000  -6.358960  14.674500
                    CHANNELS 3 Zrotation Xrotation Yrotation
                    End Site
                    {
                        OFFSET   0.000000   0.000000   3.913200
                    }
                }
            }
        }
    }
    JOINT RightHip
    {
        OFFSET  -9.783040   0.000000   0.000000
        CHANNELS 3 Zrotation Xrotation Yrotation
        JOINT RightKnee
        {
            OFFSET   0.000047 -41.789100  -0.000896
            CHANNELS 3 Zrotation Xrotation Yrotation
            JOINT RightAnkle
            {
                OFFSET  -0.000117 -41.133300  -0.000248
                CHANNELS 3 Zrotation Xrotation Yrotation
                JOINT RightToe
                {
                    OFFSET   0.000000  -6.358970  14.674500
                    CHANNELS 3 Zrotation Xrotation Yrotation
                    End Site
                    {
                        OFFSET   0.000000   0.000000   3.913200
                    }
                }
            }
        }
    }
}
MOTION
Frames: 4
Frame Time:   0.016667
 -1.206440  89.215100   3.610700  -0.343735  -3.947730   3.112810   0.516191   3.504360   0.066944   1.031170   7.009160   0.102469  -1.188030   0.267391  -0.003482  -1.951930   0.541897   4.472120  -5.769250   1.888770   7.239650 -77.898900   4.831520  -1.714210   0.475033   8.255030 -14.907900   9.014950  -5.229470  -2.797940  39.659400  30.569600 -53.252100 -30.356900  -0.003069   0.002097 -10.178400  -0.001715   0.009439 -32.310100   0.332964  -0.522402 -26.441600  -0.002882  -0.001026 -18.509200  -0.008251  -0.002787 -29.466800  -3.744990   6.587750 -44.523300   0.001280   0.006631 -29.652500   0.000889  -0.009714 -27.804100  -4.062820   7.649520 -32.475100  -0.001988   0.008611 -21.628400  -0.008056  -0.001203 -31.592200  -4.564040   7.364380 -47.829500  -0.000915  -0.000500 -31.854500  -0.002555  -0.007796   9.967000   4.878480   6.464180  69.093200  -4.013230  -2.299200   3.552140  -5.210200  15.432900 -11.349900  -0.252013   3.102180 -59.040300  54.333300 108.293000 -17.348200  -0.003940  -0.001168 -13.674100  -0.005227   0.005554  22.784700   2.418370   5.714980  18.740600   0.003325   0.003910  13.118500  -0.012857  -0.012322  21.858300  -1.307330  -3.252430  21.894200  -0.001823  -0.004413  14.581500  -0.001226  -0.000403  21.052000  -1.739800  -4.514340  21.120400  -0.002920  -0.002817  14.066200  -0.002437  -0.011384  20.351100  -2.935560  -7.908050  30.828300  -0.022582   0.002896  20.531600  -0.000309   0.002404   4.503640   6.792350  -1.362530   1.058900   2.471900  12.467900  -5.474570  -4.923610  -1.758850  -0.000000   0.000000  -0.000000  -0.529839   8.653840  -4.656860   1.953720   0.297281 -10.067500  -0.743674  -5.093370   1.766090  -0.000000   0.000000  -0.000000
 -1.200410  89.215100   3.610270  -0.343915  -3.947730   3.112720   0.516318   3.504250   0.069704   1.031260   7.008960   0.107997  -1.195770   0.281031  -0.003473  -1.964670   0.569314   4.457380  -5.769260   1.888840   7.240260 -77.898700   4.839000  -1.714510   0.478383   8.255540 -14.887000   9.018650  -5.229480  -2.799590  39.647700  30.554400 -53.240100 -30.356900  -0.003069   0.002094 -10.178400  -0.001706   0.009442 -32.317400   0.334931  -0.527155 -26.441400  -0.002875  -0.001027 -18.509100  -0.008244  -0.002786 -29.476600  -3.744990   6.587750 -44.538000   0.001286   0.006639 -29.662300   0.000893  -0.009716 -27.804900  -4.059210   7.643690 -32.495200  -0.001982   0.008613 -21.641800  -0.008050  -0.001200 -31.606200  -4.560300   7.357870 -47.849500  -0.000908  -0.000500 -31.867800  -0.002545  -0.007792   9.974300   4.878630   6.470350  69.103100  -4.002150  -2.290670   3.622330  -5.284100  15.413800 -11.753000  -0.452456   3.239430 -59.040300  54.333300 108.293000 -17.379300  -0.003943  -0.001167 -13.689700  -0.005229   0.005568  23.557000   2.551960   5.768720  19.378900   0.003373   0.003917  13.565300  -0.012856  -0.012333  22.605100  -1.243360  -2.978300  22.637200  -0.001790  -0.004377  15.076300  -0.001218  -0.000348  21.919600  -1.753210  -4.329080  21.984600  -0.002899  -0.002789  14.641700  -0.002418  -0.011398  21.961600  -2.883410  -7.168500  33.209600  -0.020564   0.002958  22.117500  -0.000307   0.002475   4.502350   6.798540  -1.362560   1.058900   2.471800  12.468100  -5.470110  -4.924790  -1.763810  -0.000000   0.000000   0.000000  -0.531187   8.648300  -4.657170   1.952730   0.328279 -10.067600  -0.739393  -5.118260   1.762870   0.000000   0.000000   0.000000
 -1.190100  89.215000   3.609830  -0.344367  -3.947730   3.112570   0.516461   3.504020   0.075726   1.031180   7.008580   0.120067  -1.208290   0.302710  -0.003454  -1.985250   0.612992   4.432470  -5.769360   1.888890   7.243640 -77.898300   4.849100  -1.714800   0.481145   8.256390 -14.857100   9.023590  -5.229480  -2.804940  39.633900  30.533000 -53.223200 -30.356900  -0.003065   0.002091 -10.178400  -0.001687   0.009445 -32.324700   0.339042  -0.535782 -26.441100  -0.002857  -0.001031 -18.508900  -0.008227  -0.002783 -29.489800  -3.745000   6.587750 -44.558100   0.001302   0.006659 -29.675700   0.000902  -0.009721 -27.806600  -4.052180   7.631620 -32.515300  -0.001967   0.008617 -21.655200  -0.008033  -0.001192 -31.625800  -4.552960   7.345000 -47.877200  -0.000889  -0.000501 -31.886200  -0.002518  -0.007782   9.986340   4.878730   6.480500  69.122800  -3.985020  -2.282130   3.722760  -5.399490  15.377700 -12.445300  -0.856276   3.482730 -59.040300  54.333300 108.293000 -17.410500  -0.003946  -0.001165 -13.705200  -0.005232   0.005582  24.689800   2.685520   5.822500  20.313800   0.003483   0.003932  14.219700  -0.012851  -0.012362  23.807200  -1.134010  -2.545170  23.830900  -0.001716  -0.004295  15.871300  -0.001202  -0.000256  23.294000  -1.792440  -4.143850  23.359000  -0.002850  -0.002723  15.557100  -0.002372  -0.011433  24.321900  -2.793090  -6.102300  36.702700  -0.016291   0.003021  24.444000  -0.000304   0.002545   4.499200   6.809430  -1.362610   1.058910   2.471150  12.468200  -5.462820  -4.927370  -1.771670  -0.000000   0.000000  -0.000000  -0.532535   8.642770  -4.657480   1.949430   0.359278 -10.067800  -0.735415  -5.143170   1.756330   0.000000   0.000000  -0.000000
 -1.181440  89.215000   3.611400  -0.344937  -3.950490   3.112430   0.516450   3.503700   0.083753   1.030660   7.008040   0.136170  -1.218110   0.318462  -0.003433  -2.001460   0.645038   4.411650  -5.771360   1.885000   7.252120 -77.898200   4.852170  -1.713110   0.479924   8.257680 -14.842300   9.023830  -5.229410  -2.815510  39.636400  30.524700 -53.216500 -30.345600  -0.003057   0.002091 -10.172800  -0.001665   0.009439 -32.321300   0.345651  -0.546529 -26.441000  -0.002830  -0.001036 -18.508800  -0.008200  -0.002776 -29.493200  -3.745000   6.586350 -44.563300   0.001325   0.006692 -29.679100   0.000919  -0.009730 -27.810400  -4.042060   7.612540 -32.515300  -0.001942   0.008623 -21.655000  -0.008006  -0.001180 -31.633200  -4.542320   7.326060 -47.886100  -0.000859  -0.000503 -31.892100  -0.002476  -0.007767   9.995420   4.878630   6.487250  69.145300  -3.971940  -2.282340   3.769580  -5.474620  15.332500 -13.066100  -1.353820   3.725670 -59.040300  54.333300 108.293000 -17.392300  -0.003944  -0.001170 -13.696100  -0.005227   0.005567  25.249900   2.570650   5.505680  20.760700   0.003639   0.003954  14.532500  -0.012842  -0.012409  24.697500  -1.034600  -2.237430  24.699100  -0.001608  -0.004176  16.449600  -0.001182  -0.000164  24.269500  -1.866350  -4.143990  24.358600  -0.002779  -0.002625  16.222800  -0.002306  -0.011488  25.523500  -2.717060  -5.621620  38.482700  -0.009985   0.002883  25.629500  -0.000298   0.002528   4.494560   6.818240  -1.362640   1.056320   2.469050  12.467900  -5.457440  -4.931250  -1.777570  -0.000000   0.000000  -0.000000  -0.530196   8.656290  -4.657500   1.940750   0.322049 -10.067200  -0.739676  -5.121490   1.748160  -0.000000   0.000000   0.000000
